<?xml version="1.0" encoding="UTF-8"?>
<svg version="1.1" xmlns="http://www.w3.org/2000/svg" width="250" height="147">
<path d="M0 0 C12.54 0 25.08 0 38 0 C35.77994017 4.44011966 34.02533096 5.34499447 30 8 C28.78122917 11.65631249 28.86034971 15.01404741 28.87060547 18.8203125 C28.86885315 19.61572449 28.86710083 20.41113647 28.86529541 21.23065186 C28.86089114 23.86212338 28.86380989 26.49352779 28.8671875 29.125 C28.86651405 30.95198581 28.86554368 32.77897153 28.86428833 34.60595703 C28.86281329 38.43588107 28.86495972 42.26578179 28.86962891 46.09570312 C28.87532607 51.00869604 28.87204604 55.92163433 28.86605644 60.83462524 C28.86244562 64.60750745 28.86359182 68.38037668 28.86618423 72.15325928 C28.86685206 73.96498623 28.86603011 75.77671436 28.86370468 77.58843994 C28.86116965 80.11888763 28.86503082 82.64924644 28.87060547 85.1796875 C28.86858124 85.9309491 28.86655701 86.68221069 28.86447144 87.45623779 C28.87723399 90.57805058 29.00491392 93.01474176 30 96 C93.03 96.33 156.06 96.66 221 97 C221 67.96 221 38.92 221 9 C219.35 7.68 217.7 6.36 216 5 C214.63015802 3.70420353 213.2848951 2.38007251 212 1 C212 0.67 212 0.34 212 0 C224.54 0 237.08 0 250 0 C248.76007607 4.95969573 247.23119585 5.44365251 243 8 C241.23731987 9.76268013 241.87384394 12.09274171 241.86447144 14.44087219 C241.86649567 15.22109238 241.8685199 16.00131256 241.87060547 16.80517578 C241.86885315 17.62313126 241.86710083 18.44108673 241.86529541 19.28382874 C241.86087302 22.00434454 241.86381785 24.72479596 241.8671875 27.4453125 C241.86651418 29.33283501 241.86554392 31.22035743 241.86428833 33.10787964 C241.86281052 37.07420676 241.86496713 41.04051142 241.86962891 45.00683594 C241.87530291 50.08091603 241.87206256 55.15494297 241.86605644 60.22902107 C241.86243311 64.13246049 241.86359797 68.03588743 241.86618423 71.93932724 C241.86684982 73.80915203 241.866038 75.67897797 241.86370468 77.54880142 C241.86115169 80.17205015 241.86505697 82.79521454 241.87060547 85.41845703 C241.86756912 86.57056923 241.86756912 86.57056923 241.86447144 87.74595642 C241.87801175 91.21950605 242.02710545 94.53963334 242.57058716 97.97384644 C242.7122934 98.97247711 242.85399963 99.97110779 243 101 C241.09938977 102.90061023 238.30167851 102.12289225 235.77258295 102.12908131 C234.86890484 102.12616847 233.96522673 102.12325563 233.03416443 102.12025452 C232.0818423 102.12110894 231.12952018 102.12196337 230.14833981 102.12284368 C226.93147546 102.12450139 223.71466234 102.11897238 220.49780273 102.11352539 C218.20211793 102.11324356 215.90643304 102.11340118 213.61074829 102.1139679 C207.35686689 102.11425601 201.10300449 102.10835699 194.84912753 102.10139394 C188.32146217 102.09516276 181.79379642 102.09455679 175.26612854 102.09336853 C164.30282246 102.09060881 153.33952344 102.08435324 142.3762207 102.07543945 C131.08195023 102.0662661 119.78768165 102.05918489 108.4934082 102.05493164 C107.44984733 102.05453756 107.44984733 102.05453756 106.38520443 102.05413551 C102.89518647 102.05283051 99.4051685 102.05156679 95.91515052 102.05032361 C66.94342905 102.03995007 37.97171469 102.02225683 9 102 C7.94632339 100.17208767 7.94632339 100.17208767 7 98 C7.62774493 95.98744422 8.30090553 93.98889702 9 92 C9.18306513 89.31494579 9.27389923 86.73661012 9.25878906 84.05444336 C9.2622937 83.28131302 9.26579834 82.50818268 9.26940918 81.71162415 C9.27816984 79.17093778 9.27239806 76.63053267 9.265625 74.08984375 C9.26697314 72.31677701 9.26891492 70.54371062 9.27142334 68.77064514 C9.27436681 65.06117216 9.27010147 61.35179572 9.26074219 57.64233398 C9.24933978 52.89211068 9.25591703 48.14211321 9.26788712 43.39189816 C9.2751196 39.73302005 9.27281154 36.07419535 9.26763153 32.41531563 C9.26629931 30.66385433 9.26792776 28.91238814 9.27259064 27.16093254 C9.27767961 24.7125453 9.26991281 22.26452228 9.25878906 19.81616211 C9.26283752 19.09550568 9.26688599 18.37484924 9.27105713 17.63235474 C9.2376756 13.65867084 8.84539339 10.5441055 7 7 C5.32374051 5.58146815 5.32374051 5.58146815 3.375 4.6875 C2.26125 4.130625 1.1475 3.57375 0 3 C0 2.01 0 1.02 0 0 Z " fill="#333333" transform="translate(0,45)"/>
<path d="M0 0 C1.23488663 0.35051674 1.23488663 0.35051674 2.49472046 0.70811462 C4.27230065 1.21388208 6.04854375 1.72436818 7.82354736 2.23910522 C11.64202567 3.34629913 15.46693691 4.43044958 19.29153442 5.51628113 C21.29290966 6.08476542 23.29394344 6.65445309 25.29464722 7.22529602 C35.83485252 10.23000662 46.40716984 13.11317921 56.984375 15.984375 C58.81513678 16.48230197 60.64586617 16.98034808 62.4765625 17.47851562 C66.04117763 18.44835658 69.60596719 19.4175522 73.17089844 20.38623047 C80.58639545 22.40167015 87.99981019 24.42474122 95.41326904 26.44766235 C98.83792723 27.38208835 102.26271792 28.31602819 105.6875 29.25 C107.34120605 29.70101074 107.34120605 29.70101074 109.02832031 30.16113281 C109.79756836 30.37092773 110.56681641 30.58072266 111.359375 30.796875 C111.029375 31.456875 110.699375 32.116875 110.359375 32.796875 C28.849375 32.796875 -52.660625 32.796875 -136.640625 32.796875 C-136.640625 32.136875 -136.640625 31.476875 -136.640625 30.796875 C-113.28895864 24.12182023 -89.9314523 17.50681537 -66.41894531 11.41894531 C-58.44149075 9.34907503 -50.48963819 7.21269733 -42.5625 4.95703125 C-41.73581818 4.72274918 -40.90913635 4.4884671 -40.05740356 4.24708557 C-36.10376602 3.12566119 -32.1536968 1.99376822 -28.20849609 0.84301758 C-26.79276073 0.43920371 -25.37691376 0.03578084 -23.9609375 -0.3671875 C-22.73648926 -0.72248535 -21.51204102 -1.0777832 -20.25048828 -1.44384766 C-12.88060831 -2.99398472 -7.07746714 -2.09075205 0 0 Z " fill="#333333" transform="translate(137.640625,2.203125)"/>
<path d="M0 0 C1.17691406 -0.020625 2.35382812 -0.04125 3.56640625 -0.0625 C12.51085449 -0.10274499 18.71557723 0.77460273 25.375 7.25 C34.72095696 23.00943532 35.63465405 40.84711599 31.28515625 58.38671875 C29.36775733 64.41870762 25.80056161 68.96316357 20.375 72.25 C12.91382856 75.40070193 5.74461347 75.6269228 -2.25 75.4375 C-3.34957031 75.42396484 -4.44914062 75.41042969 -5.58203125 75.39648438 C-8.26355332 75.361508 -10.94400073 75.31243072 -13.625 75.25 C-13.64812465 65.61887288 -13.66591571 55.98775526 -13.67681217 46.35660648 C-13.68204074 41.88494451 -13.68913789 37.41330147 -13.70043945 32.94165039 C-13.71126929 28.62988027 -13.71727704 24.31812841 -13.71987724 20.00634575 C-13.72173132 18.35763702 -13.7253516 16.70892934 -13.73073006 15.06022835 C-13.73794178 12.75896128 -13.73899089 10.4577706 -13.73852539 8.15649414 C-13.740746 6.8441127 -13.74296661 5.53173126 -13.74525452 4.17958069 C-13.473866 -2.43185136 -5.17789625 0.0222466 0 0 Z M-2.625 4.25 C-2.625 26.69 -2.625 49.13 -2.625 72.25 C8.1811743 73.04524516 8.1811743 73.04524516 15.8515625 67.8046875 C23.80115042 56.17773918 23.46099002 38.89094011 21.25 25.625 C19.39156731 17.00783335 15.93968207 10.1568208 8.375 5.25 C4.63713521 3.82836298 4.63713521 3.82836298 -2.625 4.25 Z " fill="#333333" transform="translate(45.625,59.75)"/>
<path d="M0 0 C82.5 0 165 0 250 0 C250 1.65 250 3.3 250 5 C167.5 5 85 5 0 5 C0 3.35 0 1.7 0 0 Z " fill="#333333" transform="translate(0,37)"/>
<path d="M0 0 C7.18889647 5.46929333 8.04437703 12.25896171 9.3515625 20.7890625 C10.24404467 29.54911827 9.24920395 40.35190326 4.3515625 47.7890625 C0.74432933 52.19790304 -2.04260759 53.8102668 -7.6484375 54.7890625 C-13.20915838 55.27487817 -17.96100999 55.51224572 -23.1484375 53.2890625 C-30.48783862 45.94966138 -30.8488149 37.44544587 -30.8984375 27.6015625 C-30.9190625 26.59802734 -30.9396875 25.59449219 -30.9609375 24.56054688 C-31.00102689 16.85837233 -30.25004047 10.11333296 -25.3984375 3.9140625 C-18.29281641 -1.57664471 -8.52907914 -3.89972645 0 0 Z M-18.6484375 6.7890625 C-23.79947424 16.76146963 -22.99269597 31.50174256 -20.4609375 42.1640625 C-19.04215307 46.40061881 -17.52413492 49.32270959 -13.6484375 51.7890625 C-10.04261971 52.20256019 -10.04261971 52.20256019 -6.6484375 50.7890625 C-0.65451327 43.82315056 -0.26002745 36.38444117 -0.2734375 27.6015625 C-0.27432373 26.57450195 -0.27520996 25.54744141 -0.27612305 24.48925781 C-0.39758685 16.73283807 -0.91965104 9.22761796 -6.10546875 3.0546875 C-7.69678943 1.5376043 -7.69678943 1.5376043 -10.5234375 1.2890625 C-14.8627924 1.98335928 -16.03842726 3.26202163 -18.6484375 6.7890625 Z " fill="#333333" transform="translate(171.6484375,80.2109375)"/>
<path d="M0 0 C7.26 0 14.52 0 22 0 C27.43315604 5.43315604 29.04778972 7.56973057 29.3125 14.9375 C29.20782495 20.34034304 27.874628 24.125372 24 28 C24.680625 28.556875 24.680625 28.556875 25.375 29.125 C29.44513485 33.82130944 29.38464003 39.9661508 29.625 45.875 C29.66367188 46.65875 29.70234375 47.4425 29.7421875 48.25 C29.83566622 50.16631367 29.91888495 52.08312319 30 54 C30.66 54 31.32 54 32 54 C32 54.66 32 55.32 32 56 C27.8707001 56.40483332 25.72835659 56.52750354 22.30859375 54.05078125 C19.20432462 49.94852374 19.25804591 46.88760339 19.25 41.875 C19.21679024 40.26815874 19.18046031 38.66137816 19.140625 37.0546875 C19.13579102 36.34812012 19.13095703 35.64155273 19.12597656 34.91357422 C19.06645038 32.77730973 19.06645038 32.77730973 18 30 C14.7 29.67 11.4 29.34 8 29 C8 37.91 8 46.82 8 56 C5.36 56 2.72 56 0 56 C0 37.52 0 19.04 0 0 Z M8 3 C8 10.92 8 18.84 8 27 C15.36257781 27.71641046 15.36257781 27.71641046 18.46484375 25.4296875 C21.58075415 20.49814483 20.73763376 14.59048744 20 9 C18.73218248 5.76874827 17.93023716 5.11974603 15 3 C12.69 3 10.38 3 8 3 Z " fill="#333333" transform="translate(184,79)"/>
<path d="M0 0 C2.95915322 2.45274143 4.47680428 4.06713159 5.70703125 7.7578125 C3.9140625 8.44140625 3.9140625 8.44140625 1.70703125 8.7578125 C0.03125 7.54296875 0.03125 7.54296875 -1.60546875 5.8203125 C-4.29286299 3.36310192 -5.19120004 2.7788681 -8.91796875 2.0078125 C-12.49161898 2.801957 -14.16290891 3.74018694 -16.29296875 6.74609375 C-21.78643007 17.7973929 -19.93182637 32.46690243 -17.33984375 44.015625 C-16.15010152 47.13203935 -14.87599971 48.67283288 -12.29296875 50.7578125 C-9.13146584 51.39011308 -7.23829204 51.36888916 -4.4921875 49.59375 C-3.30224206 48.68154344 -2.13722219 47.73558132 -1.00390625 46.75390625 C0.70703125 45.7578125 0.70703125 45.7578125 2.91796875 46.10546875 C3.50835937 46.32074219 4.09875 46.53601563 4.70703125 46.7578125 C1.57795067 50.87031841 -0.22801588 53.19936546 -5.29296875 54.7578125 C-10.61582778 55.38147173 -16.32721371 55.66147065 -21.29296875 53.3828125 C-26.9763262 48.40987473 -28.80075397 41.14103415 -29.29296875 33.7578125 C-29.78432679 23.94293569 -30.21915947 12.49138386 -24.04296875 4.1953125 C-17.71535831 -1.4132513 -7.91996001 -4.29054052 0 0 Z " fill="#333333" transform="translate(137.29296875,80.2421875)"/>
<path d="M0 0 C9.24 0 18.48 0 28 0 C28 0.99 28 1.98 28 3 C21.4 3 14.8 3 8 3 C8 10.92 8 18.84 8 27 C11.96 27 15.92 27 20 27 C20 27.66 20 28.32 20 29 C16.04 29 12.08 29 8 29 C8 37.25 8 45.5 8 54 C14.93 54 21.86 54 29 54 C29 54.66 29 55.32 29 56 C19.43 56 9.86 56 0 56 C0 37.52 0 19.04 0 0 Z " fill="#333333" transform="translate(82,79)"/>
<path d="M0 0 C0.66 0 1.32 0 2 0 C2.83986084 1.93467942 3.67168027 3.87285129 4.5 5.8125 C4.9640625 6.89144531 5.428125 7.97039063 5.90625 9.08203125 C7 12 7 12 7 15 C6.34 15 5.68 15 5 15 C5 14.34 5 13.68 5 13 C1.53058454 13.45822468 -1.67395049 13.89131683 -5 15 C-3.97137215 9.55432314 -2.75385216 4.88182883 0 0 Z M0 6 C-0.33 7.32 -0.66 8.64 -1 10 C0.32 9.67 1.64 9.34 3 9 C2.67 8.01 2.34 7.02 2 6 C1.34 6 0.68 6 0 6 Z " fill="#333333" transform="translate(202,55)"/>
<path d="M0 0 C0.66 0 1.32 0 2 0 C2.83986084 1.93467942 3.67168027 3.87285129 4.5 5.8125 C4.9640625 6.89144531 5.428125 7.97039063 5.90625 9.08203125 C7 12 7 12 7 15 C6.01 14.67 5.02 14.34 4 14 C4 13.34 4 12.68 4 12 C1.69 12.33 -0.62 12.66 -3 13 C-3 13.66 -3 14.32 -3 15 C-3.66 15 -4.32 15 -5 15 C-3.97137215 9.55432314 -2.75385216 4.88182883 0 0 Z M0 6 C-0.33 7.32 -0.66 8.64 -1 10 C0.32 9.67 1.64 9.34 3 9 C2.67 8.01 2.34 7.02 2 6 C1.34 6 0.68 6 0 6 Z " fill="#333333" transform="translate(169,55)"/>
<path d="M0 0 C3.0625 0.125 3.0625 0.125 5.0625 1.125 C4.7325 2.445 4.4025 3.765 4.0625 5.125 C1.5875 4.135 1.5875 4.135 -0.9375 3.125 C-1.2675 3.785 -1.5975 4.445 -1.9375 5.125 C-0.98875 5.41375 -0.04 5.7025 0.9375 6 C4.0625 7.125 4.0625 7.125 6.0625 9.125 C5.50694444 13.68055556 5.50694444 13.68055556 4.0625 15.125 C1.1875 15.4375 1.1875 15.4375 -1.9375 15.125 C-3.8125 13.125 -3.8125 13.125 -4.9375 11.125 C-2.09782769 11.125 0.29985711 11.52767181 3.0625 12.125 C3.0625 11.465 3.0625 10.805 3.0625 10.125 C2.093125 9.650625 1.12375 9.17625 0.125 8.6875 C-2.9375 7.125 -2.9375 7.125 -3.9375 6.125 C-4.0625 3.625 -4.0625 3.625 -3.9375 1.125 C-2.9375 0.125 -2.9375 0.125 0 0 Z " fill="#333333" transform="translate(185.9375,54.875)"/>
<path d="M0 0 C0.33 0.99 0.66 1.98 1 3 C-1.31 3 -3.62 3 -6 3 C-6 5.31 -6 7.62 -6 10 C-2.86650268 11.04449911 -2.01031744 10.93423645 1 10 C0.34 11.32 -0.32 12.64 -1 14 C-2.98 14 -4.96 14 -7 14 C-8.95470812 10.71609035 -10.02657584 8.67768381 -9.875 4.8125 C-8.02035595 -1.14885587 -5.89864578 -1.44189119 0 0 Z " fill="#333333" transform="translate(157,56)"/>
</svg>
