<svg xmlns="http://www.w3.org/2000/svg" width="250" height="147"><path fill="#333" d="M0 45h38c-2.22 4.44-3.975 5.345-8 8-1.219 3.656-1.14 7.014-1.13 10.82l-.005 2.41q-.004 3.948.002 7.895l-.003 5.481q-.002 5.745.006 11.49.006 7.37-.004 14.739-.005 5.659 0 11.318 0 2.718-.002 5.435-.003 3.795.007 7.592l-.007 2.276c.013 3.122.14 5.559 1.136 8.544l191 1V54l-5-4a89 89 0 0 1-4-4v-1h38c-1.24 4.96-2.769 5.444-7 8-1.763 1.763-1.126 4.093-1.136 6.44l.007 2.365-.006 2.479q-.004 4.08.002 8.161 0 2.832-.003 5.663-.001 5.95.006 11.899.006 7.611-.004 15.222-.005 5.855 0 11.71 0 2.805-.002 5.61-.003 3.934.007 7.87l-.007 2.327c.014 3.474.163 6.794.707 10.228L243 146c-1.9 1.9-4.698 1.123-7.227 1.13l-2.739-.01-2.886.003c-3.217.002-6.433-.004-9.65-.01l-6.887.001q-9.381-.001-18.762-.013c-6.528-.006-13.055-.006-19.583-.008q-16.444-.004-32.89-.018-16.94-.014-33.883-.02h-2.108l-10.47-.005Q52.458 147.034 9 147c-1.054-1.828-1.054-1.828-2-4a177 177 0 0 1 2-6c.183-2.685.274-5.263.259-7.946l.01-2.342c.01-2.541.003-5.081-.003-7.622l.005-5.32q.005-5.563-.01-11.128c-.012-4.75-.005-9.5.007-14.25q.009-5.489 0-10.977-.003-2.627.005-5.254c.005-2.448-.003-4.896-.014-7.345l.012-2.184C9.238 58.66 8.845 55.544 7 52c-1.676-1.419-1.676-1.419-3.625-2.312L0 48zM137.64 2.203l2.495.708q2.666.759 5.33 1.531c3.818 1.107 7.643 2.192 11.467 3.277q3.003.854 6.003 1.71c10.54 3.004 21.113 5.887 31.69 8.759l5.492 1.494 10.695 2.907q11.122 3.026 22.242 6.062l10.274 2.802 3.34.911L249 33l-1 2H1v-2c23.352-6.675 46.71-13.29 70.222-19.378 7.977-2.07 15.929-4.206 23.856-6.462l2.505-.71a1660 1660 0 0 0 11.85-3.404l4.247-1.21 3.71-1.077c7.37-1.55 13.173-.647 20.25 1.444"/><path fill="#333" d="m45.625 59.75 3.566-.062c8.945-.04 15.15.837 21.809 7.312 9.346 15.76 10.26 33.597 5.91 51.137C74.993 124.169 71.426 128.713 66 132c-7.461 3.15-14.63 3.377-22.625 3.188l-3.332-.042A786 786 0 0 1 32 135q-.034-14.447-.052-28.893a9878 9878 0 0 0-.023-13.415q-.016-6.468-.02-12.936-.003-2.472-.01-4.946-.01-3.451-.009-6.904l-.006-3.976c.271-6.612 8.567-4.158 13.745-4.18M43 64v68c10.806.795 10.806.795 18.477-4.445 7.95-11.627 7.609-28.914 5.398-42.18C65.017 76.758 61.565 69.907 54 65c-3.738-1.422-3.738-1.422-11-1M0 37h250v5H0zM171.648 80.21c7.19 5.47 8.045 12.26 9.352 20.79.892 8.76-.102 19.563-5 27-3.607 4.409-6.394 6.021-12 7-5.56.486-10.313.723-15.5-1.5-7.34-7.34-7.7-15.844-7.75-25.687l-.062-3.042c-.04-7.702.71-14.447 5.562-20.646 7.106-5.49 16.87-7.814 25.398-3.914M153 87c-5.151 9.972-4.344 24.713-1.812 35.375 1.418 4.237 2.936 7.159 6.812 9.625 3.606.413 3.606.413 7-1 5.994-6.966 6.388-14.405 6.375-23.187l-.003-3.113c-.121-7.756-.643-15.261-5.829-21.434-1.591-1.517-1.591-1.517-4.418-1.766-4.34.694-5.515 1.973-8.125 5.5M184 79h22c5.433 5.433 7.048 7.57 7.313 14.938-.105 5.402-1.438 9.187-5.313 13.062l1.375 1.125c4.07 4.696 4.01 10.841 4.25 16.75l.117 2.375c.094 1.916.177 3.833.258 5.75h2v2c-4.13.405-6.272.528-9.691-1.95-3.105-4.101-3.051-7.162-3.059-12.175q-.05-2.41-.11-4.82l-.014-2.141c-.06-2.137-.06-2.137-1.126-4.914l-10-1v27h-8zm8 3v24c7.363.716 7.363.716 10.465-1.57C205.58 99.498 204.738 93.59 204 88c-1.268-3.231-2.07-3.88-5-6z"/><path fill="#333" d="M137.293 80.242c2.96 2.453 4.477 4.067 5.707 7.758-1.793.684-1.793.684-4 1-1.676-1.215-1.676-1.215-3.312-2.937-2.688-2.458-3.586-3.042-7.313-3.813-3.574.794-5.245 1.732-7.375 4.738-5.493 11.052-3.639 25.721-1.047 37.27 1.19 3.116 2.464 4.657 5.047 6.742 3.162.632 5.055.611 7.8-1.164a75 75 0 0 0 3.49-2.84c1.71-.996 1.71-.996 3.92-.648L142 127c-3.13 4.113-4.935 6.442-10 8-5.323.624-11.034.904-16-1.375-5.683-4.973-7.508-12.242-8-19.625-.491-9.815-.926-21.266 5.25-29.562 6.328-5.61 16.123-8.486 24.043-4.196"/><path fill="#333" d="M82 79h28v3H90v24h12v2H90v25h21v2H82zM202 55h2q1.259 2.903 2.5 5.813l1.406 3.269C209 67 209 67 209 70h-2v-2c-3.47.458-6.674.891-10 2 1.029-5.446 2.246-10.118 5-15m0 6-1 4 4-1-1-3zM169 55h2q1.259 2.903 2.5 5.813l1.406 3.269C176 67 176 67 176 70l-3-1v-2l-7 1v2h-2c1.029-5.446 2.246-10.118 5-15m0 6-1 4 4-1-1-3zM185.938 54.875C189 55 189 55 191 56l-1 4-5-2-1 2 2.875.875C190 62 190 62 192 64c-.556 4.556-.556 4.556-2 6-2.875.313-2.875.313-6 0-1.875-2-1.875-2-3-4 2.84 0 5.237.403 8 1v-2l-2.937-1.437C183 62 183 62 182 61c-.125-2.5-.125-2.5 0-5 1-1 1-1 3.938-1.125M157 56l1 3h-7v7c3.133 1.044 3.99.934 7 0l-2 4h-6c-1.955-3.284-3.027-5.322-2.875-9.187C148.98 54.85 151.101 54.558 157 56"/></svg>