<svg xmlns="http://www.w3.org/2000/svg" width="430" height="425" fill="none" viewBox="0 0 430 425"><path fill="#333" d="M37.036 398.512c-10.628 0-19.45-3.532-26.485-10.627Q0 377.265 0 361.599c0-10.445 3.517-19.191 10.551-26.287 7.034-7.08 15.858-10.627 26.485-10.627 6.713 0 12.89 1.636 18.518 4.893 5.643 3.257 9.986 7.6 13.074 12.998L50.31 353.203c-2.523-5.214-7.034-7.829-13.563-7.829-4.573 0-8.334 1.514-11.316 4.542s-4.48 6.927-4.48 11.667 1.483 8.64 4.48 11.668c2.982 3.027 6.759 4.541 11.316 4.541 6.62 0 11.132-2.599 13.563-7.829l18.32 10.49c-3.074 5.505-7.417 9.878-12.998 13.135-5.597 3.258-11.79 4.894-18.595 4.894zM77.008 396.555v-102.04h20.965v102.04zM132.714 316.81c-2.477 2.477-5.429 3.7-8.885 3.7s-6.407-1.238-8.869-3.7c-2.477-2.462-3.7-5.429-3.7-8.885s1.238-6.407 3.7-8.884c2.462-2.462 5.429-3.701 8.869-3.701 3.441 0 6.408 1.239 8.885 3.701 2.462 2.477 3.7 5.429 3.7 8.884s-1.238 6.408-3.7 8.885m-19.359 79.745v-69.897h20.964v69.897zM183.237 398.512c-10.627 0-19.451-3.532-26.485-10.627q-10.551-10.62-10.551-26.286c0-10.445 3.517-19.191 10.551-26.287 7.034-7.08 15.858-10.627 26.485-10.627 6.713 0 12.891 1.636 18.518 4.893 5.643 3.257 9.986 7.6 13.075 12.998l-18.32 10.627c-2.523-5.214-7.034-7.829-13.563-7.829-4.572 0-8.334 1.514-11.316 4.542s-4.48 6.927-4.48 11.667 1.483 8.64 4.48 11.668c2.982 3.027 6.759 4.541 11.316 4.541 6.621 0 11.132-2.599 13.563-7.829l18.32 10.49c-3.074 5.505-7.417 9.878-12.998 13.135-5.597 3.258-11.79 4.894-18.595 4.894zM284.59 396.555h-15.093l-31.868-33.091v33.091h-12.156v-97.85h12.156v58.734l30.201-30.766h15.659l-33.412 33.825 34.528 36.057zM297.996 367.211c1.208 6.239 4.083 11.086 8.594 14.542s10.092 5.168 16.698 5.168c9.221 0 15.934-3.394 20.124-10.199l10.337 5.872c-6.805 10.536-17.05 15.796-30.752 15.796-11.086 0-20.108-3.471-27.05-10.414s-10.414-15.719-10.414-26.347c0-10.627 3.395-19.298 10.2-26.286s15.612-10.49 26.423-10.49q15.368 0 25.094 10.826c6.468 7.218 9.71 15.919 9.71 26.072q0 2.661-.413 5.46H297.98zm24.176-30.889c-6.53 0-11.928 1.835-16.209 5.52-4.282 3.685-6.943 8.594-7.967 14.741h46.685c-1.025-6.621-3.64-11.652-7.829-15.093-4.19-3.44-9.084-5.168-14.68-5.168M416.966 326.673h12.998l-28.519 74.225c-2.982 7.921-7.156 13.961-12.508 18.105s-11.53 5.994-18.518 5.52v-11.316c8.532.658 14.802-4.113 18.793-14.282l1.33-2.63-30.476-69.607h12.998l23.304 53.582 20.583-53.582zM225.454 250.903c-53.169 0-96.429-43.259-96.429-96.428V96.428C129.025 43.26 172.285 0 225.454 0c53.168 0 96.428 43.26 96.428 96.428v58.047c0 53.169-43.26 96.428-96.428 96.428m0-225.121c-38.963 0-70.662 31.699-70.662 70.662v58.046c0 38.963 31.699 70.662 70.662 70.662s70.662-31.699 70.662-70.662V96.444c0-38.963-31.699-70.663-70.662-70.663"/><path fill="#333" d="M240.596 96.49c.871 3.257-1.591 6.468-4.955 6.468H215.15c-3.379 0-5.841-3.211-4.954-6.468l4.098-15.17c-3.593-3.134-5.856-7.722-5.856-12.844 0-4.695 1.896-8.946 4.969-12.02a16.94 16.94 0 0 1 12.019-4.97c4.695 0 8.946 1.897 12.02 4.97a16.94 16.94 0 0 1 4.969 12.02c0 4.694-1.896 8.945-4.969 12.019-.322.32-.627.611-.964.886l4.098 15.109z"/></svg>