<svg xmlns="http://www.w3.org/2000/svg" xml:space="preserve" viewBox="0 0 651 89"><path fill="#fefefe" d="M482 90H1.081V1.096h650.89V90zm102.966-42.5v21.212h10.209V51.69c4.734-1.969 6.409.658 7.9 3.989 1.679 3.749 3.54 7.43 5.57 11 .586 1.027 1.973 2.083 3.102 2.219 2.685.323 5.435.104 8.793.104-2.019-3.798-3.642-6.796-5.212-9.822-1.583-3.049-3.113-6.124-4.653-9.163 7.539-4.426 10.012-12.337 7.78-21.973-1.222-5.274-3.947-9.264-9.142-9.7-8.011-.674-16.121-.178-24.347-.178zM442.492 28.977h-46.105V58.69h59.448v-5.766h-52.91l.316-6.2h52.454v-5.918h-52.509v-6.63h52.525v-5.2zm-203 24.067h-36.209v5.957c15.93 0 31.566.01 47.202-.005 6.968-.007 9.511-2.445 9.532-9.046.022-6.932-2.073-8.952-9.334-8.955-13.786-.007-27.572-.002-41.3-.002V34.12h49.319v-5.13c-17.092 0-33.895-.126-50.691.176-1.893.034-4.631 2.088-5.457 3.899-3.414 7.488.793 13.717 9.001 13.775 11.492.08 22.984.018 34.476.017h7.02l-.278 6.187zm-45.68 4.018-5.343-8.86c4.649-1.153 6.612-5.073 5.5-12.654-.673-4.579-3.099-6.748-8.089-6.655-13.475.25-26.959.086-40.439.086h-9.179v29.672h6.71v-7.645c11.354 0 22.46-.004 33.566 0 8.047.005 8.35.224 11.392 8.457 1.956-.515 3.994-1.052 5.882-2.401M99.5 28.983c-7.16.003-14.319-.022-21.478.017-5.66.03-7.803 2.022-7.98 7.683-.153 4.824-.172 9.66-.004 14.483.17 4.893 2.957 7.753 7.785 7.792 13.985.111 27.972.128 41.957-.005 4.745-.045 7.166-2.805 7.211-7.55.05-5.16.063-10.323-.006-15.483-.065-4.827-2.142-6.877-7.005-6.919-6.493-.056-12.987-.016-20.48-.018M61.698 43.844c.006-2.499.18-5.01-.015-7.494-.467-5.967-2.062-7.344-8.165-7.356-8.666-.017-17.332-.013-25.998-.015-7.768-.002-15.536 0-23.259 0V58.69h6.536l.342-7.688c14.261 0 28.077-.039 41.892.022 4.524.02 7.813-1.36 8.667-7.18M295.5 59.001h28.243v-7.173h-48.74c0-4.56.152-8.708-.05-12.839-.154-3.155 1.18-4.014 4.132-3.967 8.492.133 16.989.044 25.484.043h19.158v-6.079c-16.074 0-31.875-.015-47.676.01-5.277.007-7.609 2-7.918 7.305-.281 4.815-.254 9.667-.024 14.486.278 5.805 2.939 8.142 8.902 8.2 5.829.059 11.66.013 18.49.014m67.997-18.853h-23.634V29.233h-6.638v29.524h6.855V47.219h40.64v11.583h6.395V29.35h-6.535V40.15zm278.25-22.27c-3.088-.475-2.97 1.512-2.96 3.657.043 10.166.083 20.333-.031 30.499-.088 7.775-1.36 8.934-8.99 8.948-1.586.002-3.173 0-4.706 0v8.044c3.427 0 6.59.101 9.746-.02 6.936-.268 12.858-4.415 13.063-10.423.46-13.436.144-26.899.144-40.726-1.74 0-3.553 0-6.265.022m-127.831 9.622v49.105h8.83v-65.38h-8.83z"/><path fill="#040404" d="M584.966 47V18.167c8.226 0 16.336-.496 24.347.178 5.195.436 7.92 4.426 9.142 9.7 2.232 9.636-.241 17.547-7.78 21.973 1.54 3.039 3.07 6.114 4.653 9.163 1.57 3.026 3.193 6.024 5.212 9.822-3.358 0-6.108.22-8.793-.104-1.129-.136-2.516-1.192-3.101-2.22a128 128 0 0 1-5.571-11c-1.491-3.33-3.166-5.957-7.9-3.988v17.02h-10.21zm24.006-10.789c.256-9.465-1.123-10.44-13.703-8.582V42.87c12.065.405 12.065.405 13.703-6.66"/><path fill="#050505" d="M442.99 28.977h12.721v5.2h-52.525v6.63h52.509v5.919H403.24l-.316 6.2h52.91v5.765h-59.448V28.977zM239.99 53.045h12.782l.279-6.187h-7.021c-11.492 0-22.984.063-34.476-.017-8.208-.058-12.415-6.287-9-13.775.825-1.81 3.563-3.865 5.456-3.899 16.796-.302 33.6-.176 50.69-.176v5.13h-49.318v6.872c13.728 0 27.514-.005 41.3.002 7.261.003 9.356 2.023 9.334 8.955-.021 6.6-2.564 9.039-9.532 9.046-15.636.015-31.272.005-47.202.005v-5.957z"/><path fill="#040404" d="M193.887 57.469c-1.963.943-4.001 1.48-5.957 1.995-3.042-8.233-3.345-8.452-11.392-8.456-11.106-.005-22.212-.001-33.565-.001v7.645h-6.71V28.98h9.178c13.48 0 26.964.165 40.44-.086 4.989-.093 7.415 2.076 8.087 6.655 1.113 7.581-.85 11.5-5.499 12.655 1.71 2.836 3.526 5.847 5.418 9.265M143.03 35.703v8.082h43.72c.579-8.728.579-8.732-7.598-8.723-11.789.014-23.577.034-36.122.641"/><path fill="#020202" d="M100 28.983c6.993.002 13.487-.038 19.98.018 4.863.042 6.94 2.092 7.005 6.919.069 5.16.055 10.323.006 15.484-.045 4.744-2.466 7.504-7.211 7.55-13.985.132-27.972.115-41.957.004-4.828-.039-7.615-2.9-7.785-7.792-.168-4.823-.149-9.66.003-14.483.178-5.661 2.321-7.653 7.98-7.683 7.16-.039 14.32-.014 21.979-.017m20 15.498V35.06c-13.698 0-26.658-.064-39.615.112-1.137.015-3.159 1.542-3.224 2.475-.332 4.723-.153 9.48-.153 14.046H120z"/><path fill="#040404" d="M61.619 44.26c-.775 5.405-4.064 6.785-8.588 6.765-13.815-.06-27.63-.022-41.892-.022l-.342 7.688H4.261V28.979c7.723 0 15.491-.002 23.259 0 8.666.002 17.332-.002 25.998.015 6.103.012 7.698 1.389 8.165 7.356.195 2.483.021 4.995-.064 7.91m-45.01-9.212h-5.456v8.688h43.712c.39-10.512.405-8.562-7.91-8.65-9.79-.102-19.581-.023-30.347-.038"/><path fill="#020202" d="M295 59.002c-6.33 0-12.16.045-17.99-.013-5.962-.06-8.623-2.396-8.9-8.201-.23-4.82-.258-9.671.023-14.486.309-5.305 2.641-7.298 7.918-7.306 15.8-.024 31.602-.009 47.676-.009v6.08H304.57c-8.495 0-16.992.09-25.484-.044-2.951-.047-4.286.812-4.132 3.967.202 4.13.05 8.278.05 12.84h48.74v7.172z"/><path fill="#050505" d="M363.998 40.149h16.583V29.35h6.535v29.452h-6.395V47.22h-40.64v11.538h-6.855V29.233h6.638v10.916z"/><path fill="#090909" d="M642.199 17.869c2.262-.01 4.075-.01 5.815-.01 0 13.826.316 27.289-.144 40.725-.205 6.008-6.127 10.155-13.063 10.422-3.155.122-6.32.021-9.746.021v-8.044c1.533 0 3.12.002 4.707 0 7.63-.014 8.901-1.173 8.989-8.948.114-10.166.074-20.333.03-30.5-.008-2.144-.127-4.131 3.412-3.666"/><path fill="#ba4b4b" d="M513.918 27.002V11.228h8.83v65.379h-8.83zm1.54-9.845c-.131 1.978-.374 3.956-.377 5.934-.02 16.04-.073 32.08.163 48.115.019 1.285 1.909 3.242 3.3 3.662 2.883.87 3.515-1.158 3.506-3.742-.066-18.1.036-36.2-.17-54.298-.018-1.599-1.55-4.15-2.905-4.573-3.334-1.039-2.846 2.095-3.516 4.902"/><path fill="#fcfcfc" d="M608.97 36.64c-1.637 6.636-1.637 6.636-13.702 6.231V27.63c12.58-1.859 13.959-.883 13.702 9.012"/><path fill="#fbfbfb" d="M143.408 35.409c12.167-.313 23.955-.333 35.744-.347 8.177-.01 8.177-.005 7.598 8.723h-43.72c0-2.605 0-5.343.378-8.376"/><path fill="#fdfdfd" d="M120 44.966v6.727H77.009c0-4.565-.18-9.323.153-14.046.065-.933 2.087-2.46 3.224-2.475 12.957-.176 25.917-.112 39.615-.112z"/><path fill="#fbfbfb" d="M17.096 35.055c10.278.008 20.07-.071 29.859.031 8.315.088 8.3-1.862 7.91 8.65H11.153v-8.688c1.898 0 3.677 0 5.943.007"/><path fill="#f23435" d="M515.602 16.738c.527-2.388.039-5.522 3.373-4.483 1.355.422 2.887 2.974 2.905 4.573.206 18.098.104 36.198.17 54.298.01 2.584-.623 4.612-3.507 3.742-1.39-.42-3.28-2.377-3.3-3.662-.235-16.035-.182-32.076-.162-48.115.003-1.978.246-3.956.521-6.353"/></svg>