<svg xmlns="http://www.w3.org/2000/svg" width="651" height="89" fill="none" viewBox="0 0 651 89"><path fill="#333" d="M584.965 47V18.167c8.226 0 16.336-.496 24.347.178 5.195.437 7.92 4.426 9.142 9.7 2.232 9.636-.241 17.547-7.78 21.973 1.54 3.039 3.071 6.114 4.653 9.163 1.57 3.026 3.193 6.024 5.212 9.822-3.358 0-6.108.22-8.793-.104-1.129-.136-2.516-1.192-3.101-2.22a128 128 0 0 1-5.571-11c-1.491-3.33-3.166-5.957-7.9-3.988v17.021h-10.209zm24.006-10.789c.255-9.465-1.124-10.44-13.703-8.582V42.87c12.064.405 12.064.405 13.703-6.66M442.99 28.977h12.721v5.2h-52.525v6.63h52.509v5.919h-52.454l-.316 6.2h52.91v5.765h-59.448V28.977zM239.99 53.045h12.782l.278-6.187h-7.02c-11.492 0-22.984.063-34.476-.017-8.209-.058-12.416-6.288-9.001-13.775.826-1.81 3.564-3.865 5.456-3.899 16.796-.302 33.6-.176 50.692-.176v5.13h-49.319v6.871c13.728 0 27.514-.004 41.3.003 7.261.003 9.356 2.023 9.334 8.955-.021 6.6-2.564 9.039-9.532 9.046-15.636.015-31.272.005-47.202.005v-5.956zM193.886 57.469c-1.963.943-4.001 1.48-5.957 1.995-3.041-8.233-3.345-8.452-11.391-8.456-11.106-.005-22.212-.001-33.566-.001v7.645h-6.71V28.98h9.178c13.481 0 26.964.165 40.44-.086 4.989-.092 7.415 2.076 8.087 6.655 1.114 7.581-.85 11.5-5.498 12.655 1.71 2.835 3.526 5.847 5.417 9.265m-50.857-21.766v8.082h43.721c.578-8.728.578-8.732-7.599-8.723-11.788.014-23.577.034-36.122.641M100 28.983c6.994.002 13.488-.038 19.981.018 4.862.042 6.94 2.092 7.004 6.919.069 5.16.056 10.323.007 15.484-.045 4.744-2.467 7.504-7.212 7.55-13.984.132-27.971.115-41.956.004-4.828-.039-7.615-2.9-7.786-7.792-.167-4.823-.148-9.66.004-14.483.178-5.661 2.32-7.653 7.98-7.683 7.16-.039 14.32-.014 21.978-.017m20.001 15.498V35.06c-13.698 0-26.658-.064-39.615.112-1.137.015-3.16 1.542-3.225 2.475-.332 4.723-.153 9.48-.153 14.047h42.993zM61.62 44.26c-.776 5.405-4.064 6.785-8.588 6.765-13.816-.06-27.631-.022-41.892-.022l-.342 7.688H4.262V28.979c7.723 0 15.49-.002 23.258 0 8.666.002 17.332-.002 25.998.015 6.104.012 7.699 1.389 8.166 7.356.194 2.483.021 4.995-.064 7.91m-45.011-9.212h-5.456v8.688h43.713c.39-10.512.405-8.562-7.91-8.65-9.79-.102-19.582-.023-30.347-.038M295 59.002c-6.329 0-12.16.044-17.989-.013-5.963-.06-8.624-2.396-8.901-8.201-.23-4.82-.258-9.671.023-14.486.309-5.305 2.642-7.298 7.919-7.306 15.8-.024 31.601-.009 47.676-.009v6.08h-19.159c-8.495 0-16.991.09-25.484-.044-2.951-.047-4.286.812-4.132 3.967.202 4.13.05 8.278.05 12.84h48.74v7.172zM363.997 40.149h16.583V29.35h6.535v29.452h-6.394V47.22H340.08v11.538h-6.855V29.233h6.638v10.916zM642.198 17.869c2.262-.01 4.075-.01 5.815-.01 0 13.826.316 27.289-.143 40.725-.206 6.008-6.128 10.154-13.064 10.422-3.155.122-6.319.021-9.745.021v-8.044c1.532 0 3.119.002 4.706 0 7.629-.014 8.901-1.173 8.989-8.948.114-10.166.074-20.333.031-30.5-.009-2.144-.127-4.131 3.411-3.666"/><path fill="#ba4b4b" d="M513.918 27.002V11.228h8.831v65.379h-8.831zm1.541-9.845c-.132 1.978-.375 3.956-.378 5.934-.02 16.04-.073 32.08.163 48.116.019 1.284 1.909 3.241 3.3 3.66 2.884.87 3.515-1.157 3.506-3.74-.066-18.1.036-36.201-.17-54.299-.018-1.599-1.55-4.15-2.905-4.573-3.334-1.039-2.845 2.095-3.516 4.902"/><path fill="#333" d="M515.601 16.739c.527-2.389.039-5.523 3.373-4.484 1.355.422 2.887 2.974 2.905 4.573.206 18.098.104 36.198.17 54.298.009 2.584-.623 4.612-3.507 3.742-1.39-.42-3.28-2.377-3.299-3.661-.236-16.036-.183-32.077-.163-48.116.003-1.978.246-3.956.521-6.353"/></svg>