<svg version="1.1" id="Layer_1" xmlns="http://www.w3.org/2000/svg" xmlns:xlink="http://www.w3.org/1999/xlink" x="0px" y="0px"
	 width="100%" viewBox="0 0 651 89" enable-background="new 0 0 651 89" xml:space="preserve">
<path fill="#FEFEFE" opacity="1.000000" stroke="none" 
	d="
M482.000000,90.000000 
	C321.387421,90.000000 161.274872,90.000000 1.081151,90.000000 
	C1.081151,60.397640 1.081151,30.795006 1.081151,1.096183 
	C217.999969,1.096183 434.999969,1.096183 651.971252,1.096183 
	C651.971252,30.725060 651.971252,60.362545 651.971252,90.000000 
	C595.461670,90.000000 538.980835,90.000000 482.000000,90.000000 
M584.965698,47.499878 
	C584.965698,54.596249 584.965698,61.692616 584.965698,68.711929 
	C588.597656,68.711929 591.666260,68.711929 595.174805,68.711929 
	C595.174805,62.688412 595.174805,56.949619 595.174805,51.690796 
	C599.908752,49.722332 601.583679,52.349113 603.074951,55.679714 
	C604.753601,59.428928 606.614075,63.110634 608.645935,66.679070 
	C609.231018,67.706734 610.618103,68.763222 611.746704,68.899048 
	C614.431763,69.222198 617.182007,69.003143 620.539795,69.003143 
	C618.521240,65.205109 616.898254,62.206654 615.327759,59.180916 
	C613.745422,56.132324 612.215271,53.056637 610.674866,50.017807 
	C618.213806,45.592419 620.687195,37.681030 618.454773,28.045044 
	C617.232849,22.770615 614.507507,18.781429 609.312744,18.344641 
	C601.301575,17.671049 593.191956,18.167253 584.965637,18.167253 
	C584.965637,27.883696 584.965637,37.191822 584.965698,47.499878 
M442.491882,28.976786 
	C427.087524,28.976786 411.683197,28.976786 396.386841,28.976786 
	C396.386841,39.393810 396.386841,49.118877 396.386841,58.691097 
	C416.486664,58.691097 436.213104,58.691097 455.835022,58.691097 
	C455.835022,56.729198 455.835022,55.106335 455.835022,52.925354 
	C438.138794,52.925354 420.606079,52.925354 402.925262,52.925354 
	C403.043823,50.594887 403.133392,48.833981 403.240631,46.725899 
	C420.985687,46.725899 438.390350,46.725899 455.694641,46.725899 
	C455.694641,44.625168 455.694641,42.899040 455.694641,40.806931 
	C437.975952,40.806931 420.568085,40.806931 403.186340,40.806931 
	C403.186340,38.483189 403.186340,36.536961 403.186340,34.177612 
	C420.759094,34.177612 438.158386,34.177612 455.711060,34.177612 
	C455.711060,32.238487 455.711060,30.719299 455.711060,28.976868 
	C451.439972,28.976868 447.464172,28.976868 442.491882,28.976786 
M239.491516,53.044487 
	C227.388947,53.044487 215.286362,53.044487 203.282074,53.044487 
	C203.282074,55.335579 203.282074,57.066078 203.282074,59.000664 
	C219.211746,59.000664 234.847885,59.011250 250.484009,58.995827 
	C257.452362,58.988949 259.994995,56.550865 260.015991,49.949795 
	C260.038025,43.017906 257.943298,40.998253 250.682068,40.994560 
	C236.895889,40.987549 223.109726,40.992527 209.381958,40.992527 
	C209.381958,38.524212 209.381958,36.493683 209.381958,34.120598 
	C226.011047,34.120598 242.274216,34.120598 258.700928,34.120598 
	C258.700928,32.235771 258.700928,30.719202 258.700928,28.991402 
	C241.609329,28.991402 224.805557,28.864679 208.009552,29.167356 
	C206.116638,29.201468 203.378799,31.255205 202.553146,33.065739 
	C199.138519,40.553505 203.345535,46.783489 211.554489,46.840878 
	C223.045807,46.921211 234.538116,46.858932 246.029999,46.857761 
	C248.299286,46.857529 250.568573,46.857727 253.050507,46.857727 
	C252.940506,49.304001 252.862091,51.047760 252.772278,53.045147 
	C248.438751,53.045147 244.463455,53.045147 239.491516,53.044487 
M193.811630,57.062649 
	C191.995499,54.051083 190.179352,51.039513 188.469223,48.203728 
	C193.117981,47.049622 195.081284,43.130142 193.968155,35.548702 
	C193.295944,30.970245 190.869980,28.801468 185.880417,28.894197 
	C172.404739,29.144634 158.921326,28.979881 145.440994,28.979860 
	C142.345108,28.979855 139.249222,28.979858 136.262421,28.979858 
	C136.262421,39.344780 136.262421,49.088718 136.262421,58.652157 
	C138.618362,58.652157 140.677551,58.652157 142.972717,58.652157 
	C142.972717,56.020271 142.972717,53.739773 142.972717,51.006630 
	C154.326263,51.006630 165.432312,51.002724 176.538345,51.007935 
	C184.584915,51.011711 184.888214,51.230839 187.929886,59.464046 
	C189.885696,58.948967 191.924042,58.412155 193.811630,57.062649 
M99.499985,28.983328 
	C92.340584,28.985859 85.181046,28.961164 78.021835,28.999596 
	C72.362381,29.029974 70.219475,31.022039 70.041054,36.682877 
	C69.889015,41.506538 69.870117,46.343258 70.037849,51.165661 
	C70.208054,56.058914 72.995117,58.919189 77.823082,58.957626 
	C91.808037,59.068958 105.795250,59.085960 119.779808,58.953224 
	C124.524635,58.908188 126.945976,56.148445 126.991035,51.403927 
	C127.040070,46.242958 127.053772,41.080448 126.984772,35.919918 
	C126.920242,31.093431 124.842812,29.043135 119.980118,29.001110 
	C113.487167,28.944996 106.993378,28.984749 99.499985,28.983328 
M61.698475,43.844444 
	C61.704445,41.345360 61.877506,38.833199 61.683105,36.349800 
	C61.216015,30.382828 59.621334,29.006124 53.517849,28.994158 
	C44.851818,28.977165 36.185741,28.981262 27.519682,28.979013 
	C19.752010,28.976999 11.984338,28.978588 4.261147,28.978588 
	C4.261147,39.307098 4.261147,49.059368 4.261147,58.690689 
	C6.604176,58.690689 8.672570,58.690689 10.797164,58.690689 
	C10.917887,55.976646 11.024777,53.573578 11.139108,51.003246 
	C25.400251,51.003246 39.215836,50.964405 53.030975,51.025391 
	C57.555176,51.045361 60.843910,49.664623 61.698475,43.844444 
M295.500061,59.001575 
	C304.937073,59.001575 314.374054,59.001575 323.742523,59.001575 
	C323.742523,56.379627 323.742523,54.308113 323.742523,51.829163 
	C307.397186,51.829163 291.329437,51.829163 275.002319,51.829163 
	C275.002319,47.268303 275.154633,43.120731 274.952881,38.990448 
	C274.798737,35.835171 276.133911,34.976048 279.084656,35.022549 
	C287.577423,35.156380 296.073700,35.067287 304.568604,35.066490 
	C311.001831,35.065884 317.435089,35.066372 323.727234,35.066372 
	C323.727234,32.721199 323.727234,30.975727 323.727234,28.987423 
	C307.652527,28.987423 291.851898,28.971714 276.051331,28.996248 
	C270.774475,29.004442 268.441956,30.996504 268.132538,36.302299 
	C267.851746,41.116573 267.879150,45.968597 268.109375,50.787800 
	C268.386688,56.592892 271.047638,58.929558 277.010651,58.988705 
	C282.839966,59.046520 288.670288,59.001469 295.500061,59.001575 
M363.498474,40.148571 
	C355.736694,40.148571 347.974945,40.148571 339.864380,40.148571 
	C339.864380,36.115410 339.864380,32.685425 339.864380,29.232563 
	C337.422302,29.232563 335.352600,29.232563 333.225525,29.232563 
	C333.225525,39.227493 333.225525,48.977280 333.225525,58.756744 
	C335.538269,58.756744 337.607513,58.756744 340.080750,58.756744 
	C340.080750,54.768219 340.080750,51.016560 340.080750,47.218723 
	C353.753693,47.218723 367.011688,47.218723 380.721466,47.218723 
	C380.721466,51.163208 380.721466,54.901127 380.721466,58.802086 
	C383.098450,58.802086 385.021545,58.802086 387.116028,58.802086 
	C387.116028,48.859627 387.116028,39.123863 387.116028,29.350220 
	C384.894562,29.350220 382.863464,29.350220 380.581390,29.350220 
	C380.581390,33.008995 380.581390,36.303207 380.581390,40.148571 
	C375.053284,40.148571 369.775482,40.148571 363.498474,40.148571 
M641.748840,17.879736 
	C638.660461,17.403723 638.778503,19.391087 638.787720,21.535837 
	C638.831238,31.702028 638.871094,41.869461 638.756653,52.034698 
	C638.669128,59.809845 637.397217,60.969112 629.767883,60.982513 
	C628.180786,60.985302 626.593628,60.982918 625.061401,60.982918 
	C625.061401,63.980335 625.061401,66.406174 625.061401,69.027069 
	C628.487671,69.027069 631.651550,69.128212 634.806763,69.006378 
	C641.742920,68.738556 647.665161,64.591911 647.870483,58.583542 
	C648.329590,45.147564 648.014038,31.685123 648.014038,17.858248 
	C646.273682,17.858248 644.461121,17.858248 641.748840,17.879736 
M513.918030,27.501682 
	C513.918030,43.884808 513.918030,60.267929 513.918030,76.606918 
	C517.361755,76.606918 520.075562,76.606918 522.748657,76.606918 
	C522.748657,54.533749 522.748657,32.849876 522.748657,11.227723 
	C519.653625,11.227723 516.928650,11.227723 513.917603,11.227723 
	C513.917603,16.576078 513.917603,21.539583 513.918030,27.501682 
z"/>
<path fill="#040404" opacity="1.000000" stroke="none" 
	d="
M584.965698,46.999912 
	C584.965637,37.191822 584.965637,27.883696 584.965637,18.167253 
	C593.191956,18.167253 601.301575,17.671049 609.312744,18.344641 
	C614.507507,18.781429 617.232849,22.770615 618.454773,28.045044 
	C620.687195,37.681030 618.213806,45.592419 610.674866,50.017807 
	C612.215271,53.056637 613.745422,56.132324 615.327759,59.180916 
	C616.898254,62.206654 618.521240,65.205109 620.539795,69.003143 
	C617.182007,69.003143 614.431763,69.222198 611.746704,68.899048 
	C610.618103,68.763222 609.231018,67.706734 608.645935,66.679070 
	C606.614075,63.110634 604.753601,59.428928 603.074951,55.679714 
	C601.583679,52.349113 599.908752,49.722332 595.174805,51.690796 
	C595.174805,56.949619 595.174805,62.688412 595.174805,68.711929 
	C591.666260,68.711929 588.597656,68.711929 584.965698,68.711929 
	C584.965698,61.692616 584.965698,54.596249 584.965698,46.999912 
M608.971436,36.211399 
	C609.226685,26.745640 607.847595,25.770477 595.268311,27.628901 
	C595.268311,32.744125 595.268311,37.822624 595.268311,42.871483 
	C607.333069,43.276402 607.333069,43.276402 608.971436,36.211399 
z"/>
<path fill="#050505" opacity="1.000000" stroke="none" 
	d="
M442.990143,28.976826 
	C447.464172,28.976868 451.439972,28.976868 455.711060,28.976868 
	C455.711060,30.719299 455.711060,32.238487 455.711060,34.177612 
	C438.158386,34.177612 420.759094,34.177612 403.186340,34.177612 
	C403.186340,36.536961 403.186340,38.483189 403.186340,40.806931 
	C420.568085,40.806931 437.975952,40.806931 455.694641,40.806931 
	C455.694641,42.899040 455.694641,44.625168 455.694641,46.725899 
	C438.390350,46.725899 420.985687,46.725899 403.240631,46.725899 
	C403.133392,48.833981 403.043823,50.594887 402.925262,52.925354 
	C420.606079,52.925354 438.138794,52.925354 455.835022,52.925354 
	C455.835022,55.106335 455.835022,56.729198 455.835022,58.691097 
	C436.213104,58.691097 416.486664,58.691097 396.386841,58.691097 
	C396.386841,49.118877 396.386841,39.393810 396.386841,28.976786 
	C411.683197,28.976786 427.087524,28.976786 442.990143,28.976826 
z"/>
<path fill="#050505" opacity="1.000000" stroke="none" 
	d="
M239.989838,53.044815 
	C244.463455,53.045147 248.438751,53.045147 252.772278,53.045147 
	C252.862091,51.047760 252.940506,49.304001 253.050507,46.857727 
	C250.568573,46.857727 248.299286,46.857529 246.029999,46.857761 
	C234.538116,46.858932 223.045807,46.921211 211.554489,46.840878 
	C203.345535,46.783489 199.138519,40.553505 202.553146,33.065739 
	C203.378799,31.255205 206.116638,29.201468 208.009552,29.167356 
	C224.805557,28.864679 241.609329,28.991402 258.700928,28.991402 
	C258.700928,30.719202 258.700928,32.235771 258.700928,34.120598 
	C242.274216,34.120598 226.011047,34.120598 209.381958,34.120598 
	C209.381958,36.493683 209.381958,38.524212 209.381958,40.992527 
	C223.109726,40.992527 236.895889,40.987549 250.682068,40.994560 
	C257.943298,40.998253 260.038025,43.017906 260.015991,49.949795 
	C259.994995,56.550865 257.452362,58.988949 250.484009,58.995827 
	C234.847885,59.011250 219.211746,59.000664 203.282074,59.000664 
	C203.282074,57.066078 203.282074,55.335579 203.282074,53.044487 
	C215.286362,53.044487 227.388947,53.044487 239.989838,53.044815 
z"/>
<path fill="#040404" opacity="1.000000" stroke="none" 
	d="
M193.886993,57.468994 
	C191.924042,58.412155 189.885696,58.948967 187.929886,59.464046 
	C184.888214,51.230839 184.584915,51.011711 176.538345,51.007935 
	C165.432312,51.002724 154.326263,51.006630 142.972717,51.006630 
	C142.972717,53.739773 142.972717,56.020271 142.972717,58.652157 
	C140.677551,58.652157 138.618362,58.652157 136.262421,58.652157 
	C136.262421,49.088718 136.262421,39.344780 136.262421,28.979858 
	C139.249222,28.979858 142.345108,28.979855 145.440994,28.979860 
	C158.921326,28.979881 172.404739,29.144634 185.880417,28.894197 
	C190.869980,28.801468 193.295944,30.970245 193.968155,35.548702 
	C195.081284,43.130142 193.117981,47.049622 188.469223,48.203728 
	C190.179352,51.039513 191.995499,54.051083 193.886993,57.468994 
M143.030029,35.703201 
	C143.030029,38.441608 143.030029,41.180012 143.030029,43.785332 
	C158.013748,43.785332 172.393738,43.785332 186.750336,43.785332 
	C187.328705,35.057056 187.328705,35.052647 179.152023,35.062054 
	C167.363495,35.075619 155.574951,35.096348 143.030029,35.703201 
z"/>
<path fill="#020202" opacity="1.000000" stroke="none" 
	d="
M99.999969,28.983328 
	C106.993378,28.984749 113.487167,28.944996 119.980118,29.001110 
	C124.842812,29.043135 126.920242,31.093431 126.984772,35.919918 
	C127.053772,41.080448 127.040070,46.242958 126.991035,51.403927 
	C126.945976,56.148445 124.524635,58.908188 119.779808,58.953224 
	C105.795250,59.085960 91.808037,59.068958 77.823082,58.957626 
	C72.995117,58.919189 70.208054,56.058914 70.037849,51.165661 
	C69.870117,46.343258 69.889015,41.506538 70.041054,36.682877 
	C70.219475,31.022039 72.362381,29.029974 78.021835,28.999596 
	C85.181046,28.961164 92.340584,28.985859 99.999969,28.983328 
M120.000374,44.481491 
	C120.000374,41.399529 120.000374,38.317566 120.000374,35.059792 
	C106.302414,35.059792 93.342117,34.995613 80.385071,35.171700 
	C79.248367,35.187149 77.226189,36.713951 77.160561,37.647404 
	C76.828552,42.369595 77.007820,47.127728 77.007820,51.693497 
	C91.708092,51.693497 105.759148,51.693497 120.000504,51.693497 
	C120.000504,49.409576 120.000504,47.430416 120.000374,44.481491 
z"/>
<path fill="#040404" opacity="1.000000" stroke="none" 
	d="
M61.618980,44.260700 
	C60.843910,49.664623 57.555176,51.045361 53.030975,51.025391 
	C39.215836,50.964405 25.400251,51.003246 11.139108,51.003246 
	C11.024777,53.573578 10.917887,55.976646 10.797164,58.690689 
	C8.672570,58.690689 6.604176,58.690689 4.261147,58.690689 
	C4.261147,49.059368 4.261147,39.307098 4.261147,28.978588 
	C11.984338,28.978588 19.752010,28.976999 27.519682,28.979013 
	C36.185741,28.981262 44.851818,28.977165 53.517849,28.994158 
	C59.621334,29.006124 61.216015,30.382828 61.683105,36.349800 
	C61.877506,38.833199 61.704445,41.345360 61.618980,44.260700 
M16.608246,35.048019 
	C14.829604,35.048019 13.050962,35.048019 11.152753,35.048019 
	C11.152753,38.248932 11.152753,40.972950 11.152753,43.736153 
	C25.887281,43.736153 40.384476,43.736153 54.865059,43.736153 
	C55.254478,33.224350 55.270096,35.173901 46.954918,35.086487 
	C37.165398,34.983566 27.373962,35.062630 16.608246,35.048019 
z"/>
<path fill="#020202" opacity="1.000000" stroke="none" 
	d="
M295.000122,59.001575 
	C288.670288,59.001469 282.839966,59.046520 277.010651,58.988705 
	C271.047638,58.929558 268.386688,56.592892 268.109375,50.787800 
	C267.879150,45.968597 267.851746,41.116573 268.132538,36.302299 
	C268.441956,30.996504 270.774475,29.004442 276.051331,28.996248 
	C291.851898,28.971714 307.652527,28.987423 323.727234,28.987423 
	C323.727234,30.975727 323.727234,32.721199 323.727234,35.066372 
	C317.435089,35.066372 311.001831,35.065884 304.568604,35.066490 
	C296.073700,35.067287 287.577423,35.156380 279.084656,35.022549 
	C276.133911,34.976048 274.798737,35.835171 274.952881,38.990448 
	C275.154633,43.120731 275.002319,47.268303 275.002319,51.829163 
	C291.329437,51.829163 307.397186,51.829163 323.742523,51.829163 
	C323.742523,54.308113 323.742523,56.379627 323.742523,59.001575 
	C314.374054,59.001575 304.937073,59.001575 295.000122,59.001575 
z"/>
<path fill="#050505" opacity="1.000000" stroke="none" 
	d="
M363.998077,40.148571 
	C369.775482,40.148571 375.053284,40.148571 380.581390,40.148571 
	C380.581390,36.303207 380.581390,33.008995 380.581390,29.350220 
	C382.863464,29.350220 384.894562,29.350220 387.116028,29.350220 
	C387.116028,39.123863 387.116028,48.859627 387.116028,58.802086 
	C385.021545,58.802086 383.098450,58.802086 380.721466,58.802086 
	C380.721466,54.901127 380.721466,51.163208 380.721466,47.218723 
	C367.011688,47.218723 353.753693,47.218723 340.080750,47.218723 
	C340.080750,51.016560 340.080750,54.768219 340.080750,58.756744 
	C337.607513,58.756744 335.538269,58.756744 333.225525,58.756744 
	C333.225525,48.977280 333.225525,39.227493 333.225525,29.232563 
	C335.352600,29.232563 337.422302,29.232563 339.864380,29.232563 
	C339.864380,32.685425 339.864380,36.115410 339.864380,40.148571 
	C347.974945,40.148571 355.736694,40.148571 363.998077,40.148571 
z"/>
<path fill="#090909" opacity="1.000000" stroke="none" 
	d="
M642.198730,17.868992 
	C644.461121,17.858248 646.273682,17.858248 648.014038,17.858248 
	C648.014038,31.685123 648.329590,45.147564 647.870483,58.583542 
	C647.665161,64.591911 641.742920,68.738556 634.806763,69.006378 
	C631.651550,69.128212 628.487671,69.027069 625.061401,69.027069 
	C625.061401,66.406174 625.061401,63.980335 625.061401,60.982918 
	C626.593628,60.982918 628.180786,60.985302 629.767883,60.982513 
	C637.397217,60.969112 638.669128,59.809845 638.756653,52.034698 
	C638.871094,41.869461 638.831238,31.702028 638.787720,21.535837 
	C638.778503,19.391087 638.660461,17.403723 642.198730,17.868992 
z"/>
<path fill="#BA4B4B" opacity="1.000000" stroke="none" 
	d="
M513.917847,27.002384 
	C513.917603,21.539583 513.917603,16.576078 513.917603,11.227723 
	C516.928650,11.227723 519.653625,11.227723 522.748657,11.227723 
	C522.748657,32.849876 522.748657,54.533749 522.748657,76.606918 
	C520.075562,76.606918 517.361755,76.606918 513.918030,76.606918 
	C513.918030,60.267929 513.918030,43.884808 513.917847,27.002384 
M515.458679,17.156719 
	C515.326965,19.134880 515.083618,21.112900 515.081116,23.091225 
	C515.060730,39.130325 515.007996,55.170631 515.243652,71.206467 
	C515.262573,72.491318 517.153015,74.448189 518.543335,74.867577 
	C521.427307,75.737549 522.059082,73.710388 522.049744,71.125999 
	C521.984131,53.026443 522.085876,34.925701 521.879700,16.828241 
	C521.861511,15.229072 520.329529,12.677168 518.974792,12.255053 
	C515.640991,11.216254 516.129395,14.350389 515.458679,17.156719 
z"/>
<path fill="#FCFCFC" opacity="1.000000" stroke="none" 
	d="
M608.969849,36.640888 
	C607.333069,43.276402 607.333069,43.276402 595.268311,42.871483 
	C595.268311,37.822624 595.268311,32.744125 595.268311,27.628901 
	C607.847595,25.770477 609.226685,26.745640 608.969849,36.640888 
z"/>
<path fill="#FBFBFB" opacity="1.000000" stroke="none" 
	d="
M143.408234,35.408607 
	C155.574951,35.096348 167.363495,35.075619 179.152023,35.062054 
	C187.328705,35.052647 187.328705,35.057056 186.750336,43.785332 
	C172.393738,43.785332 158.013748,43.785332 143.030029,43.785332 
	C143.030029,41.180012 143.030029,38.441608 143.408234,35.408607 
z"/>
<path fill="#FDFDFD" opacity="1.000000" stroke="none" 
	d="
M120.000443,44.966373 
	C120.000504,47.430416 120.000504,49.409576 120.000504,51.693497 
	C105.759148,51.693497 91.708092,51.693497 77.007820,51.693497 
	C77.007820,47.127728 76.828552,42.369595 77.160561,37.647404 
	C77.226189,36.713951 79.248367,35.187149 80.385071,35.171700 
	C93.342117,34.995613 106.302414,35.059792 120.000374,35.059792 
	C120.000374,38.317566 120.000374,41.399529 120.000443,44.966373 
z"/>
<path fill="#FBFBFB" opacity="1.000000" stroke="none" 
	d="
M17.095802,35.055401 
	C27.373962,35.062630 37.165398,34.983566 46.954918,35.086487 
	C55.270096,35.173901 55.254478,33.224350 54.865059,43.736153 
	C40.384476,43.736153 25.887281,43.736153 11.152753,43.736153 
	C11.152753,40.972950 11.152753,38.248932 11.152753,35.048019 
	C13.050962,35.048019 14.829604,35.048019 17.095802,35.055401 
z"/>
<path fill="#F23435" opacity="1.000000" stroke="none" 
	d="
M515.602295,16.738468 
	C516.129395,14.350389 515.640991,11.216254 518.974792,12.255053 
	C520.329529,12.677168 521.861511,15.229072 521.879700,16.828241 
	C522.085876,34.925701 521.984131,53.026443 522.049744,71.125999 
	C522.059082,73.710388 521.427307,75.737549 518.543335,74.867577 
	C517.153015,74.448189 515.262573,72.491318 515.243652,71.206467 
	C515.007996,55.170631 515.060730,39.130325 515.081116,23.091225 
	C515.083618,21.112900 515.326965,19.134880 515.602295,16.738468 
z"/>
</svg>