<svg xmlns="http://www.w3.org/2000/svg" width="1290" height="353" fill="none" viewBox="0 0 1290 353"><path fill="#333" d="M1289.19 145.799c-.64 1.804-1.58 3.396-1.88 5.1-3.03 16.793-9.73 31.907-19.96 45.585-11.99 16.027-27.25 27.906-45.36 36.069-9.32 4.203-19.11 7.333-29.35 8.543-6.68.788-13.38 1.739-20.08 1.876-21.05.429-42.11.508-63.16.721-.84.008-1.67.001-2.76.001v99.501h-90.55V9.795c.86-.048 1.78-.142 2.7-.142 50.78-.007 101.57-.273 152.35.142 17.12.14 33.89 3.464 49.8 10.356 10.65 4.62 20.31 10.706 29.19 18.2 13.12 11.072 23.08 24.465 30 40.087 3.91 8.812 6.6 18.044 7.78 27.662.21 1.657.51 3.301 1.03 5.045.25 9.966.25 19.838.01 30.093-.08 1.615.08 2.847.24 4.079zm-167.5-54.493h-14.93v70.728h2.37c18.31 0 36.63.027 54.94-.042 1.85-.007 3.72-.492 5.54-.935 8.64-2.109 15.68-6.624 21.36-13.567 11.66-14.246 9.59-32.508-2.82-44.874-8.1-8.069-18.3-11.55-29.83-11.356-11.99.203-23.99.046-36.63.046M148.872 0c2.697.428 5.077 1.101 7.49 1.246 17.274 1.036 33.843 5.313 49.7 11.888a140.6 140.6 0 0 1 32.656 19.027c6.027 4.706 11.351 10.312 17.816 16.274-1.587 1.068-2.703 1.58-3.507 2.399-7.329 7.461-14.637 14.944-21.884 22.484a4859 4859 0 0 0-26.443 27.748c-1.75 1.849-2.446 2.163-4.744-.105-4.645-4.584-9.958-8.652-15.502-12.124-7.874-4.93-16.292-8.937-25.565-10.671-14.538-2.718-27.969-.858-38.988 9.994-4.162 4.1-6.805 9.142-7.36 15.058-.724 7.727 3.178 13.194 8.949 17.657 9.359 7.237 20.568 10.38 31.493 14.122 15.198 5.206 30.6 9.871 45.591 15.613 12.369 4.737 23.898 11.308 34.651 19.207 12.072 8.867 20.555 20.457 26.472 33.982 3.58 8.182 5.825 16.829 6.471 25.789.374 5.185.526 10.389.658 15.588.312 12.275-2.201 24.096-6.577 35.455-6.159 15.989-16.523 29.152-29.303 40.301-14.087 12.29-30.376 20.819-48.477 25.543-7.714 2.014-15.66 3.158-23.524 4.568-3.596.645-7.247.979-10.965 1.705-.575.252-1.057.252-1.872.001-1.987-.084-3.64.084-5.294.251-4.086 0-8.171 0-12.65-.251-2.046-.084-3.7.084-5.353.251-1.525 0-3.049 0-4.938-.251-.801-.511-1.214-.939-1.679-1.006-7.638-1.108-15.335-1.887-22.913-3.305-13.426-2.512-26.407-6.643-38.69-12.627-6.299-3.067-12.302-6.779-18.282-10.455-9.957-6.122-19.633-12.662-27.977-20.948-2.837-2.818-5.558-5.753-8.332-8.634 0 0 0-.321.218-.531 17.57-18.482 34.922-36.754 52.488-55.252 2.453 2.506 4.43 4.939 6.811 6.877 6.803 5.54 13.318 11.619 20.761 16.146 17.114 10.412 35.664 15.703 55.852 11.485 14.483-3.027 24.845-11.342 29.398-25.726 1.856-5.864 1.943-11.936-1.951-17.407-5.654-7.942-13.871-12.165-22.671-15.26-10.59-3.727-21.334-7.029-32.068-10.334-20.197-6.22-39.695-13.889-57.428-25.682C40.117 172.579 30.8 163.347 24 151.6c-6.875-11.874-10.71-24.809-11.62-38.344-.827-12.279-.227-24.53 3.55-36.594 6.338-20.236 19.235-35.59 35.088-48.701 9.173-7.586 19.575-13.402 30.789-17.754 12.389-4.81 25.103-7.882 38.335-8.958 1.982-.162 3.924-.82 5.884-1.249.483 0 .965 0 1.754.229 1.12.076 1.934-.077 2.747-.229zM745.865 343.355h-60.9V9.832h256.821v76.85H776.274v51.442h127.58v72.018H776.27v55.944h170.024v77.269zM498.162 181.795c3.137-1.849 6.103-3.525 9.252-5.305-11.272-6.477-22.389-12.837-33.479-19.244-12.351-7.135-24.688-14.298-36.976-21.541-.422-.248-.645-1.798-.307-2.229 8.256-10.537 16.642-20.972 24.916-31.495 7.419-9.435 14.689-18.987 22.106-28.424 6.014-7.652 12.198-15.17 18.214-22.82 5.738-7.297 11.31-14.724 17.042-22.026 4.847-6.176 9.802-12.267 14.768-18.348.359-.44 1.199-.69 1.815-.69 34.289-.029 68.578-.022 102.867-.011.197 0 .393.117 1.41.441L508.834 176.495l131.316 166.86h-4.482c-32.575 0-65.15-.046-97.724.08-2.831.011-4.624-.872-6.26-2.997-8.153-10.588-16.333-21.155-24.593-31.659-7.566-9.621-15.296-19.113-22.863-28.732-7.422-9.433-14.679-18.996-22.103-28.428-6.861-8.715-13.85-17.329-20.776-25.993-1.632-2.042-3.318-4.05-4.779-6.209-.302-.446.035-1.927.505-2.203 11.14-6.541 22.337-12.984 33.525-19.442 9.129-5.27 18.26-10.537 27.562-15.977M324.066 159.459V9.829h90.477v333.34h-90.477z"/></svg>