<?xml version="1.0" encoding="UTF-8"?>
<svg id="Camada_2" xmlns="http://www.w3.org/2000/svg" viewBox="0 0 1000 220.53">
  <defs>
    <style>
      .cls-1 {
        fill: #00205d;
      }

      .cls-2 {
        fill: #004fab;
      }

      .cls-3 {
        fill: #27def2;
      }

      .cls-4 {
        fill: #1bb5f2;
      }

      .cls-5 {
        fill: #0c70f2;
      }

      .cls-6 {
        fill: #a9f7f7;
      }
    </style>
  </defs>
  <g id="Camada_1-2" data-name="Camada_1">
    <g>
      <g>
        <path class="cls-3" d="M276.75,133.62c.17-5.06-.23-9.99-1.15-14.74l-30.21,4.81c.78,3.56,1.03,7.29.66,11.1-1.16,11.86-8.37,21.94-18.33,27.33l13.91,27.22c20.21-10.69,34.3-31.64,35.12-55.73Z"/>
        <path class="cls-4" d="M194.24,161.95l-13.9,27.24c9.91,5.3,21.33,8.14,33.46,7.67,10-.39,19.44-3.07,27.83-7.51l-13.9-27.23c-5.07,2.74-10.85,4.28-16.91,4.21-6.01-.06-11.65-1.65-16.58-4.39Z"/>
        <path class="cls-6" d="M222.03,66.63c-2.06-.34-4.15-.49-6.23-.49h-6.87l-7.86,29.32c.42-.01,9.71-.03,10.13-.03,16.71,0,30.72,12.42,34.19,28.28l30.21-4.81c-5.14-26.78-26.56-47.77-53.57-52.26Z"/>
        <path class="cls-5" d="M179.11,145.32l-27.26,13.91c6.03,12.79,16.06,23.31,28.49,29.95l13.9-27.24c-6.69-3.72-12.04-9.57-15.13-16.63Z"/>
        <path class="cls-2" d="M176.17,131.31s0-.03,0-.04h-30.57c0,10,2.24,19.47,6.24,27.96l27.26-13.91c-1.88-4.29-2.93-9.03-2.93-14.01Z"/>
      </g>
      <g>
        <polygon class="cls-1" points="100.53 66.13 66.22 193.69 66.4 194.37 97.69 194.37 132.18 66.13 100.53 66.13"/>
        <polygon class="cls-1" points="66.4 194.37 31.65 66.13 0 66.13 34.76 194.37 66.04 194.37 66.4 194.37"/>
      </g>
      <path class="cls-1" d="M199.18,19.16l-3.08,11.41h-31.83l-17.48,64.86h31.82l17.49-64.86h65.49l8.46-30.57h-45.87c-11.71,0-21.96,7.86-25.01,19.16Z"/>
      <g>
        <path class="cls-1" d="M482.33,97.35c-23.6,0-39.39,13.38-39.39,30.84h15.98c0-8.73,9.66-16.17,23.41-16.17,14.68,0,24.53,8.55,24.53,21.37v6.87h-32.7c-22.3,0-34.75,11.71-34.75,28.06,0,17.28,13.75,28.24,34.93,28.24,14.49,0,26.01-4.83,32.52-12.82v10.59h15.98v-61.13c0-21.74-16.17-35.86-40.51-35.86ZM506.86,161.27c0,13.19-11.33,21.18-27.87,21.18-14.31,0-23.04-5.95-23.04-14.87,0-8.18,6.87-13.56,20.07-13.56h30.84v7.25Z"/>
        <path class="cls-1" d="M707.65,97.35c-14.87,0-26.76,5.95-34.19,16.54v-14.31h-15.98v94.76h15.98v-53.14c0-17.09,11.52-28.43,28.99-28.43s27.69,11.15,27.69,28.06v53.51h15.98v-58.53c0-23.23-15.42-38.46-38.46-38.46Z"/>
        <path class="cls-1" d="M805.76,97.35c-28.62,0-50.36,21.37-50.36,49.61s21.74,49.61,50.91,49.61c22.3,0,40.69-12.26,48.13-30.47h-17.84c-5.39,9.48-16.91,15.79-30.1,15.79-17.84,0-31.22-11.52-34-28.24h83.24c.19-2.04.37-4.46.37-6.69,0-28.24-21.55-49.61-50.36-49.61ZM772.69,139.34c3.16-16.17,16.17-27.31,33.07-27.31s30.66,11.52,33.45,27.31h-66.52Z"/>
        <path class="cls-1" d="M883.4,117.6v-18.02h-15.98v94.76h15.98v-47.57c0-19.51,12.82-32.71,34-32.71h2.97v-14.5h-2.97c-14.86,0-26.76,5.77-34,18.03Z"/>
        <path class="cls-1" d="M945.56,124.11c0-7.25,7.06-12.26,17.84-12.26,11.33,0,18.77,5.39,18.77,13.56h16.35c0-16.91-13.75-28.06-34.93-28.06s-34.38,11.33-34.38,28.62c0,33.45,54.44,22.67,54.44,43.11,0,7.62-7.62,13.01-19.14,13.01-12.26,0-20.44-5.76-20.44-14.68h-16.35c0,17.47,14.49,29.17,36.61,29.17s35.68-11.71,35.68-29.17c0-34-54.44-23.41-54.44-43.29Z"/>
        <path class="cls-1" d="M620.73,154.02v-39.95h25.46v-14.49h-25.46v-26.2h-15.24v19.14c0,4.64-2.42,7.06-6.87,7.06h-11.52s-2.97-.01-2.97-.01c-.19,0-.38.01-.58.01h-.3c-14.45.23-26.03,6-33.13,18.02v-18.02h-15.98v94.76h15.98v-47.57c0-19.31,12.57-32.44,33.38-32.7h21.25v39.95h.02v25.15c0,8.38,6.79,15.17,15.17,15.17h26.24v-14.68h-25.46v-25.64Z"/>
        <path class="cls-1" d="M386.17,97.35c-15.8,0-28.81,7.43-36.8,19.33v-17.1h-15.99v120.95h15.99v-43.25c7.99,11.9,21,19.33,36.8,19.33,27.14,0,47.58-21.38,47.58-49.63s-20.45-49.63-47.58-49.63ZM383.2,181.18c-19.33,0-33.83-14.68-33.83-34.2s14.5-34.2,33.83-34.2,34.01,14.68,34.01,34.2-14.5,34.2-34.01,34.2Z"/>
      </g>
    </g>
  </g>
</svg>