<svg xmlns="http://www.w3.org/2000/svg" id="Camada_2" viewBox="0 0 1000 220.53"><defs><style>.cls-1{fill:#00205d}</style></defs><g id="Camada_1-2" data-name="Camada_1"><path d="M276.75 133.62c.17-5.06-.23-9.99-1.15-14.74l-30.21 4.81c.78 3.56 1.03 7.29.66 11.1-1.16 11.86-8.37 21.94-18.33 27.33l13.91 27.22c20.21-10.69 34.3-31.64 35.12-55.73Z" style="fill:#27def2"/><path d="m194.24 161.95-13.9 27.24c9.91 5.3 21.33 8.14 33.46 7.67 10-.39 19.44-3.07 27.83-7.51l-13.9-27.23c-5.07 2.74-10.85 4.28-16.91 4.21a34.7 34.7 0 0 1-16.58-4.39Z" style="fill:#1bb5f2"/><path d="M222.03 66.63c-2.06-.34-4.15-.49-6.23-.49h-6.87l-7.86 29.32c.42-.01 9.71-.03 10.13-.03 16.71 0 30.72 12.42 34.19 28.28l30.21-4.81c-5.14-26.78-26.56-47.77-53.57-52.26Z" style="fill:#a9f7f7"/><path d="m179.11 145.32-27.26 13.91a65.83 65.83 0 0 0 28.49 29.95l13.9-27.24a35.23 35.23 0 0 1-15.13-16.63Z" style="fill:#0c70f2"/><path d="M176.17 131.31v-.04H145.6c0 10 2.24 19.47 6.24 27.96l27.26-13.91a34.8 34.8 0 0 1-2.93-14.01" style="fill:#004fab"/><path d="M100.53 66.13 66.22 193.69l.18.68h31.29l34.49-128.24zM66.4 194.37 31.65 66.13H0l34.76 128.24H66.4M199.18 19.16l-3.08 11.41h-31.83l-17.48 64.86h31.82l17.49-64.86h65.49L270.05 0h-45.87c-11.71 0-21.96 7.86-25.01 19.16ZM482.33 97.35c-23.6 0-39.39 13.38-39.39 30.84h15.98c0-8.73 9.66-16.17 23.41-16.17 14.68 0 24.53 8.55 24.53 21.37v6.87h-32.7c-22.3 0-34.75 11.71-34.75 28.06 0 17.28 13.75 28.24 34.93 28.24 14.49 0 26.01-4.83 32.52-12.82v10.59h15.98V133.2c0-21.74-16.17-35.86-40.51-35.86Zm24.53 63.92c0 13.19-11.33 21.18-27.87 21.18-14.31 0-23.04-5.95-23.04-14.87 0-8.18 6.87-13.56 20.07-13.56h30.84zM707.65 97.35c-14.87 0-26.76 5.95-34.19 16.54V99.58h-15.98v94.76h15.98V141.2c0-17.09 11.52-28.43 28.99-28.43s27.69 11.15 27.69 28.06v53.51h15.98v-58.53c0-23.23-15.42-38.46-38.46-38.46ZM805.76 97.35c-28.62 0-50.36 21.37-50.36 49.61s21.74 49.61 50.91 49.61c22.3 0 40.69-12.26 48.13-30.47H836.6c-5.39 9.48-16.91 15.79-30.1 15.79-17.84 0-31.22-11.52-34-28.24h83.24c.19-2.04.37-4.46.37-6.69 0-28.24-21.55-49.61-50.36-49.61Zm-33.07 41.99c3.16-16.17 16.17-27.31 33.07-27.31s30.66 11.52 33.45 27.31zM883.4 117.6V99.58h-15.98v94.76h15.98v-47.57c0-19.51 12.82-32.71 34-32.71h2.97v-14.5h-2.97c-14.86 0-26.76 5.77-34 18.03ZM945.56 124.11c0-7.25 7.06-12.26 17.84-12.26 11.33 0 18.77 5.39 18.77 13.56h16.35c0-16.91-13.75-28.06-34.93-28.06s-34.38 11.33-34.38 28.62c0 33.45 54.44 22.67 54.44 43.11 0 7.62-7.62 13.01-19.14 13.01-12.26 0-20.44-5.76-20.44-14.68h-16.35c0 17.47 14.49 29.17 36.61 29.17s35.68-11.71 35.68-29.17c0-34-54.44-23.41-54.44-43.29ZM620.73 154.02v-39.95h25.46V99.58h-25.46v-26.2h-15.24v19.14c0 4.64-2.42 7.06-6.87 7.06H587.1l-2.97-.01c-.19 0-.38.01-.58.01h-.3c-14.45.23-26.03 6-33.13 18.02V99.58h-15.98v94.76h15.98v-47.57c0-19.31 12.57-32.44 33.38-32.7h21.25v39.95h.02v25.15c0 8.38 6.79 15.17 15.17 15.17h26.24v-14.68h-25.46v-25.64ZM386.17 97.35c-15.8 0-28.81 7.43-36.8 19.33v-17.1h-15.99v120.95h15.99v-43.25c7.99 11.9 21 19.33 36.8 19.33 27.14 0 47.58-21.38 47.58-49.63s-20.45-49.63-47.58-49.63m-2.97 83.83c-19.33 0-33.83-14.68-33.83-34.2s14.5-34.2 33.83-34.2 34.01 14.68 34.01 34.2-14.5 34.2-34.01 34.2" class="cls-1"/></g></svg>